<mxfile host="65bd71144e">
    <diagram id="OGLhsaKNKlpnYMKDaMmX" name="Page-1">
        <mxGraphModel dx="758" dy="405" grid="0" gridSize="10" guides="1" tooltips="1" connect="1" arrows="1" fold="1" page="0" pageScale="1" pageWidth="827" pageHeight="1169" math="0" shadow="0">
            <root>
                <mxCell id="0"/>
                <mxCell id="1" parent="0"/>
                <mxCell id="2" value="1. (equal 3 (abs - 3))" style="text;strokeColor=none;align=center;fillColor=none;html=1;verticalAlign=middle;whiteSpace=wrap;rounded=0;" vertex="1" parent="1">
                    <mxGeometry x="120" y="50" width="140" height="30" as="geometry"/>
                </mxCell>
                <mxCell id="14" style="edgeStyle=none;rounded=0;html=1;exitX=0;exitY=0.5;exitDx=0;exitDy=0;startArrow=block;startFill=1;endArrow=block;endFill=0;entryX=0;entryY=0.5;entryDx=0;entryDy=0;" edge="1" parent="1" source="3" target="13">
                    <mxGeometry relative="1" as="geometry">
                        <mxPoint x="230" y="300" as="targetPoint"/>
                        <Array as="points">
                            <mxPoint x="160" y="95"/>
                            <mxPoint x="160" y="305"/>
                        </Array>
                    </mxGeometry>
                </mxCell>
                <mxCell id="3" value="(equal 3 (abs - 3))" style="text;strokeColor=none;align=center;fillColor=none;html=1;verticalAlign=middle;whiteSpace=wrap;rounded=0;" vertex="1" parent="1">
                    <mxGeometry x="183" y="80" width="110" height="30" as="geometry"/>
                </mxCell>
                <mxCell id="4" value="вычисляется 3 к значению 3" style="text;strokeColor=none;align=center;fillColor=none;html=1;verticalAlign=middle;whiteSpace=wrap;rounded=0;" vertex="1" parent="1">
                    <mxGeometry x="233" y="110" width="180" height="30" as="geometry"/>
                </mxCell>
                <mxCell id="9" style="edgeStyle=none;html=1;exitX=0;exitY=0.5;exitDx=0;exitDy=0;entryX=0;entryY=0.5;entryDx=0;entryDy=0;endArrow=block;endFill=0;rounded=0;startArrow=block;startFill=1;" edge="1" parent="1" source="5" target="8">
                    <mxGeometry relative="1" as="geometry">
                        <Array as="points">
                            <mxPoint x="210" y="155"/>
                            <mxPoint x="210" y="245"/>
                        </Array>
                    </mxGeometry>
                </mxCell>
                <mxCell id="5" value="(abs - 3)" style="text;strokeColor=none;align=center;fillColor=none;html=1;verticalAlign=middle;whiteSpace=wrap;rounded=0;" vertex="1" parent="1">
                    <mxGeometry x="233" y="140" width="60" height="30" as="geometry"/>
                </mxCell>
                <mxCell id="6" value="вычисляется -3 к значению -3" style="text;strokeColor=none;align=center;fillColor=none;html=1;verticalAlign=middle;whiteSpace=wrap;rounded=0;" vertex="1" parent="1">
                    <mxGeometry x="260" y="170" width="180" height="30" as="geometry"/>
                </mxCell>
                <mxCell id="10" style="edgeStyle=none;rounded=0;html=1;exitX=0;exitY=0.5;exitDx=0;exitDy=0;startArrow=block;startFill=0;endArrow=none;endFill=0;" edge="1" parent="1" source="7">
                    <mxGeometry relative="1" as="geometry">
                        <mxPoint x="210" y="215.2" as="targetPoint"/>
                    </mxGeometry>
                </mxCell>
                <mxCell id="7" value="применяется abs к значению -3" style="text;strokeColor=none;align=center;fillColor=none;html=1;verticalAlign=middle;whiteSpace=wrap;rounded=0;" vertex="1" parent="1">
                    <mxGeometry x="260" y="200" width="190" height="30" as="geometry"/>
                </mxCell>
                <mxCell id="8" value="возвращает 3" style="text;strokeColor=none;align=center;fillColor=none;html=1;verticalAlign=middle;whiteSpace=wrap;rounded=0;" vertex="1" parent="1">
                    <mxGeometry x="260" y="230" width="90" height="30" as="geometry"/>
                </mxCell>
                <mxCell id="15" style="edgeStyle=none;rounded=0;html=1;exitX=0;exitY=0.5;exitDx=0;exitDy=0;startArrow=block;startFill=0;endArrow=none;endFill=0;" edge="1" parent="1" source="12">
                    <mxGeometry relative="1" as="geometry">
                        <mxPoint x="160" y="274.81818181818187" as="targetPoint"/>
                    </mxGeometry>
                </mxCell>
                <mxCell id="12" value="применяется equal к 3 и 3" style="text;strokeColor=none;align=center;fillColor=none;html=1;verticalAlign=middle;whiteSpace=wrap;rounded=0;" vertex="1" parent="1">
                    <mxGeometry x="253" y="260" width="153" height="30" as="geometry"/>
                </mxCell>
                <mxCell id="13" value="возвращает T" style="text;strokeColor=none;align=center;fillColor=none;html=1;verticalAlign=middle;whiteSpace=wrap;rounded=0;" vertex="1" parent="1">
                    <mxGeometry x="253" y="290" width="97" height="30" as="geometry"/>
                </mxCell>
                <mxCell id="16" value="2. (equal (+ 1 2) 3)" style="text;strokeColor=none;align=center;fillColor=none;html=1;verticalAlign=middle;whiteSpace=wrap;rounded=0;" vertex="1" parent="1">
                    <mxGeometry x="120" y="360" width="140" height="30" as="geometry"/>
                </mxCell>
                <mxCell id="17" style="edgeStyle=none;rounded=0;html=1;exitX=0;exitY=0.5;exitDx=0;exitDy=0;startArrow=block;startFill=1;endArrow=block;endFill=0;entryX=0;entryY=0.5;entryDx=0;entryDy=0;" edge="1" parent="1" source="18" target="28">
                    <mxGeometry relative="1" as="geometry">
                        <mxPoint x="230" y="610" as="targetPoint"/>
                        <Array as="points">
                            <mxPoint x="160" y="405"/>
                            <mxPoint x="160" y="645"/>
                        </Array>
                    </mxGeometry>
                </mxCell>
                <mxCell id="18" value="(equal (+ 1 2) 3)" style="text;strokeColor=none;align=center;fillColor=none;html=1;verticalAlign=middle;whiteSpace=wrap;rounded=0;" vertex="1" parent="1">
                    <mxGeometry x="183" y="390" width="110" height="30" as="geometry"/>
                </mxCell>
                <mxCell id="19" value="вычисляется 3 к значению 3" style="text;strokeColor=none;align=center;fillColor=none;html=1;verticalAlign=middle;whiteSpace=wrap;rounded=0;" vertex="1" parent="1">
                    <mxGeometry x="239.5" y="570" width="180" height="30" as="geometry"/>
                </mxCell>
                <mxCell id="20" style="edgeStyle=none;html=1;exitX=0;exitY=0.5;exitDx=0;exitDy=0;entryX=0;entryY=0.5;entryDx=0;entryDy=0;endArrow=block;endFill=0;rounded=0;startArrow=block;startFill=1;" edge="1" parent="1" source="21" target="25">
                    <mxGeometry relative="1" as="geometry">
                        <Array as="points">
                            <mxPoint x="210" y="435"/>
                            <mxPoint x="210" y="555"/>
                        </Array>
                    </mxGeometry>
                </mxCell>
                <mxCell id="21" value="(+ 1 2)" style="text;strokeColor=none;align=center;fillColor=none;html=1;verticalAlign=middle;whiteSpace=wrap;rounded=0;" vertex="1" parent="1">
                    <mxGeometry x="233" y="420" width="60" height="30" as="geometry"/>
                </mxCell>
                <mxCell id="22" value="вычисляется 1 к значению 1" style="text;strokeColor=none;align=center;fillColor=none;html=1;verticalAlign=middle;whiteSpace=wrap;rounded=0;" vertex="1" parent="1">
                    <mxGeometry x="253" y="450" width="180" height="30" as="geometry"/>
                </mxCell>
                <mxCell id="23" style="edgeStyle=none;rounded=0;html=1;exitX=0;exitY=0.5;exitDx=0;exitDy=0;startArrow=block;startFill=0;endArrow=none;endFill=0;" edge="1" parent="1" source="24">
                    <mxGeometry relative="1" as="geometry">
                        <mxPoint x="210" y="525.2" as="targetPoint"/>
                    </mxGeometry>
                </mxCell>
                <mxCell id="24" value="применяется + к значениям 1 и 2" style="text;strokeColor=none;align=center;fillColor=none;html=1;verticalAlign=middle;whiteSpace=wrap;rounded=0;" vertex="1" parent="1">
                    <mxGeometry x="260" y="510" width="200" height="30" as="geometry"/>
                </mxCell>
                <mxCell id="25" value="возвращает 3" style="text;strokeColor=none;align=center;fillColor=none;html=1;verticalAlign=middle;whiteSpace=wrap;rounded=0;" vertex="1" parent="1">
                    <mxGeometry x="260" y="540" width="90" height="30" as="geometry"/>
                </mxCell>
                <mxCell id="26" style="edgeStyle=none;rounded=0;html=1;exitX=0;exitY=0.5;exitDx=0;exitDy=0;startArrow=block;startFill=0;endArrow=none;endFill=0;" edge="1" parent="1" source="27">
                    <mxGeometry relative="1" as="geometry">
                        <mxPoint x="160" y="614.8181818181819" as="targetPoint"/>
                    </mxGeometry>
                </mxCell>
                <mxCell id="27" value="применяется equal к 3 и 3" style="text;strokeColor=none;align=center;fillColor=none;html=1;verticalAlign=middle;whiteSpace=wrap;rounded=0;" vertex="1" parent="1">
                    <mxGeometry x="252" y="600" width="153" height="30" as="geometry"/>
                </mxCell>
                <mxCell id="28" value="возвращает T" style="text;strokeColor=none;align=center;fillColor=none;html=1;verticalAlign=middle;whiteSpace=wrap;rounded=0;" vertex="1" parent="1">
                    <mxGeometry x="253" y="630" width="97" height="30" as="geometry"/>
                </mxCell>
                <mxCell id="29" value="вычисляется 2 к значению 2" style="text;strokeColor=none;align=center;fillColor=none;html=1;verticalAlign=middle;whiteSpace=wrap;rounded=0;" vertex="1" parent="1">
                    <mxGeometry x="253" y="480" width="180" height="30" as="geometry"/>
                </mxCell>
                <mxCell id="30" value="3. (equal (* 4 7) 21)" style="text;strokeColor=none;align=center;fillColor=none;html=1;verticalAlign=middle;whiteSpace=wrap;rounded=0;" vertex="1" parent="1">
                    <mxGeometry x="120" y="680" width="140" height="30" as="geometry"/>
                </mxCell>
                <mxCell id="31" style="edgeStyle=none;rounded=0;html=1;exitX=0;exitY=0.5;exitDx=0;exitDy=0;startArrow=block;startFill=1;endArrow=block;endFill=0;entryX=0;entryY=0.5;entryDx=0;entryDy=0;" edge="1" parent="1" source="32" target="42">
                    <mxGeometry relative="1" as="geometry">
                        <mxPoint x="230" y="930" as="targetPoint"/>
                        <Array as="points">
                            <mxPoint x="160" y="725"/>
                            <mxPoint x="160" y="965"/>
                        </Array>
                    </mxGeometry>
                </mxCell>
                <mxCell id="32" value="(equal (* 4 7) 21)" style="text;strokeColor=none;align=center;fillColor=none;html=1;verticalAlign=middle;whiteSpace=wrap;rounded=0;" vertex="1" parent="1">
                    <mxGeometry x="183" y="710" width="110" height="30" as="geometry"/>
                </mxCell>
                <mxCell id="33" value="вычисляется 21 к значению 21" style="text;strokeColor=none;align=center;fillColor=none;html=1;verticalAlign=middle;whiteSpace=wrap;rounded=0;" vertex="1" parent="1">
                    <mxGeometry x="252" y="890" width="180" height="30" as="geometry"/>
                </mxCell>
                <mxCell id="34" style="edgeStyle=none;html=1;exitX=0;exitY=0.5;exitDx=0;exitDy=0;entryX=0;entryY=0.5;entryDx=0;entryDy=0;endArrow=block;endFill=0;rounded=0;startArrow=block;startFill=1;" edge="1" parent="1" source="35" target="39">
                    <mxGeometry relative="1" as="geometry">
                        <Array as="points">
                            <mxPoint x="210" y="755"/>
                            <mxPoint x="210" y="875"/>
                        </Array>
                    </mxGeometry>
                </mxCell>
                <mxCell id="35" value="(* 4 7)" style="text;strokeColor=none;align=center;fillColor=none;html=1;verticalAlign=middle;whiteSpace=wrap;rounded=0;" vertex="1" parent="1">
                    <mxGeometry x="233" y="740" width="60" height="30" as="geometry"/>
                </mxCell>
                <mxCell id="36" value="вычисляется 4 к значению 4" style="text;strokeColor=none;align=center;fillColor=none;html=1;verticalAlign=middle;whiteSpace=wrap;rounded=0;" vertex="1" parent="1">
                    <mxGeometry x="253" y="770" width="180" height="30" as="geometry"/>
                </mxCell>
                <mxCell id="37" style="edgeStyle=none;rounded=0;html=1;exitX=0;exitY=0.5;exitDx=0;exitDy=0;startArrow=block;startFill=0;endArrow=none;endFill=0;" edge="1" parent="1" source="38">
                    <mxGeometry relative="1" as="geometry">
                        <mxPoint x="210" y="845.2" as="targetPoint"/>
                    </mxGeometry>
                </mxCell>
                <mxCell id="38" value="применяется * к значениям 4 и 7" style="text;strokeColor=none;align=center;fillColor=none;html=1;verticalAlign=middle;whiteSpace=wrap;rounded=0;" vertex="1" parent="1">
                    <mxGeometry x="260" y="830" width="200" height="30" as="geometry"/>
                </mxCell>
                <mxCell id="39" value="возвращает 28" style="text;strokeColor=none;align=center;fillColor=none;html=1;verticalAlign=middle;whiteSpace=wrap;rounded=0;" vertex="1" parent="1">
                    <mxGeometry x="260" y="860" width="90" height="30" as="geometry"/>
                </mxCell>
                <mxCell id="40" style="edgeStyle=none;rounded=0;html=1;exitX=0;exitY=0.5;exitDx=0;exitDy=0;startArrow=block;startFill=0;endArrow=none;endFill=0;" edge="1" parent="1" source="41">
                    <mxGeometry relative="1" as="geometry">
                        <mxPoint x="160" y="934.818181818182" as="targetPoint"/>
                    </mxGeometry>
                </mxCell>
                <mxCell id="41" value="применяется equal к 28 и 21" style="text;strokeColor=none;align=center;fillColor=none;html=1;verticalAlign=middle;whiteSpace=wrap;rounded=0;" vertex="1" parent="1">
                    <mxGeometry x="252" y="920" width="168" height="30" as="geometry"/>
                </mxCell>
                <mxCell id="42" value="возвращает Nil" style="text;strokeColor=none;align=center;fillColor=none;html=1;verticalAlign=middle;whiteSpace=wrap;rounded=0;" vertex="1" parent="1">
                    <mxGeometry x="253" y="950" width="97" height="30" as="geometry"/>
                </mxCell>
                <mxCell id="43" value="вычисляется 7 к значению 7" style="text;strokeColor=none;align=center;fillColor=none;html=1;verticalAlign=middle;whiteSpace=wrap;rounded=0;" vertex="1" parent="1">
                    <mxGeometry x="253" y="800" width="180" height="30" as="geometry"/>
                </mxCell>
                <mxCell id="44" value="4. (equal (* 2 3) (+ 7 2))" style="text;strokeColor=none;align=center;fillColor=none;html=1;verticalAlign=middle;whiteSpace=wrap;rounded=0;" vertex="1" parent="1">
                    <mxGeometry x="120" y="1000" width="140" height="30" as="geometry"/>
                </mxCell>
                <mxCell id="45" style="edgeStyle=none;rounded=0;html=1;exitX=0;exitY=0.5;exitDx=0;exitDy=0;startArrow=block;startFill=1;endArrow=block;endFill=0;entryX=0;entryY=0.5;entryDx=0;entryDy=0;" edge="1" parent="1" source="46" target="56">
                    <mxGeometry relative="1" as="geometry">
                        <mxPoint x="230" y="1250" as="targetPoint"/>
                        <Array as="points">
                            <mxPoint x="160" y="1045"/>
                            <mxPoint x="160" y="1405"/>
                        </Array>
                    </mxGeometry>
                </mxCell>
                <mxCell id="46" value="(equal (* 2 3) (+ 7 2))" style="text;strokeColor=none;align=center;fillColor=none;html=1;verticalAlign=middle;whiteSpace=wrap;rounded=0;" vertex="1" parent="1">
                    <mxGeometry x="183" y="1030" width="117" height="30" as="geometry"/>
                </mxCell>
                <mxCell id="48" style="edgeStyle=none;html=1;exitX=0;exitY=0.5;exitDx=0;exitDy=0;entryX=0;entryY=0.5;entryDx=0;entryDy=0;endArrow=block;endFill=0;rounded=0;startArrow=block;startFill=1;" edge="1" parent="1" source="49" target="53">
                    <mxGeometry relative="1" as="geometry">
                        <Array as="points">
                            <mxPoint x="210" y="1075"/>
                            <mxPoint x="210" y="1195"/>
                        </Array>
                    </mxGeometry>
                </mxCell>
                <mxCell id="49" value="(* 2 3)" style="text;strokeColor=none;align=center;fillColor=none;html=1;verticalAlign=middle;whiteSpace=wrap;rounded=0;" vertex="1" parent="1">
                    <mxGeometry x="233" y="1060" width="60" height="30" as="geometry"/>
                </mxCell>
                <mxCell id="50" value="вычисляется 2 к значению 2" style="text;strokeColor=none;align=center;fillColor=none;html=1;verticalAlign=middle;whiteSpace=wrap;rounded=0;" vertex="1" parent="1">
                    <mxGeometry x="253" y="1090" width="180" height="30" as="geometry"/>
                </mxCell>
                <mxCell id="51" style="edgeStyle=none;rounded=0;html=1;exitX=0;exitY=0.5;exitDx=0;exitDy=0;startArrow=block;startFill=0;endArrow=none;endFill=0;" edge="1" parent="1" source="52">
                    <mxGeometry relative="1" as="geometry">
                        <mxPoint x="210" y="1165.2" as="targetPoint"/>
                    </mxGeometry>
                </mxCell>
                <mxCell id="52" value="применяется * к значениям 2 и 3" style="text;strokeColor=none;align=center;fillColor=none;html=1;verticalAlign=middle;whiteSpace=wrap;rounded=0;" vertex="1" parent="1">
                    <mxGeometry x="260" y="1150" width="200" height="30" as="geometry"/>
                </mxCell>
                <mxCell id="53" value="возвращает 6" style="text;strokeColor=none;align=center;fillColor=none;html=1;verticalAlign=middle;whiteSpace=wrap;rounded=0;" vertex="1" parent="1">
                    <mxGeometry x="260" y="1180" width="90" height="30" as="geometry"/>
                </mxCell>
                <mxCell id="54" style="edgeStyle=none;rounded=0;html=1;exitX=0;exitY=0.5;exitDx=0;exitDy=0;startArrow=block;startFill=0;endArrow=none;endFill=0;" edge="1" parent="1" source="55">
                    <mxGeometry relative="1" as="geometry">
                        <mxPoint x="160" y="1374.818181818182" as="targetPoint"/>
                    </mxGeometry>
                </mxCell>
                <mxCell id="55" value="применяется equal к 6 и 9" style="text;strokeColor=none;align=center;fillColor=none;html=1;verticalAlign=middle;whiteSpace=wrap;rounded=0;" vertex="1" parent="1">
                    <mxGeometry x="252" y="1360" width="168" height="30" as="geometry"/>
                </mxCell>
                <mxCell id="56" value="возвращает Nil" style="text;strokeColor=none;align=center;fillColor=none;html=1;verticalAlign=middle;whiteSpace=wrap;rounded=0;" vertex="1" parent="1">
                    <mxGeometry x="253" y="1390" width="97" height="30" as="geometry"/>
                </mxCell>
                <mxCell id="57" value="вычисляется 3 к значению 3" style="text;strokeColor=none;align=center;fillColor=none;html=1;verticalAlign=middle;whiteSpace=wrap;rounded=0;" vertex="1" parent="1">
                    <mxGeometry x="253" y="1120" width="180" height="30" as="geometry"/>
                </mxCell>
                <mxCell id="58" style="edgeStyle=none;html=1;exitX=0;exitY=0.5;exitDx=0;exitDy=0;entryX=0;entryY=0.5;entryDx=0;entryDy=0;endArrow=block;endFill=0;rounded=0;startArrow=block;startFill=1;" edge="1" parent="1" source="59" target="63">
                    <mxGeometry relative="1" as="geometry">
                        <Array as="points">
                            <mxPoint x="210" y="1225"/>
                            <mxPoint x="210" y="1345"/>
                        </Array>
                    </mxGeometry>
                </mxCell>
                <mxCell id="59" value="(+ 7 2)" style="text;strokeColor=none;align=center;fillColor=none;html=1;verticalAlign=middle;whiteSpace=wrap;rounded=0;" vertex="1" parent="1">
                    <mxGeometry x="233" y="1210" width="60" height="30" as="geometry"/>
                </mxCell>
                <mxCell id="60" value="вычисляется 7 к значению 7" style="text;strokeColor=none;align=center;fillColor=none;html=1;verticalAlign=middle;whiteSpace=wrap;rounded=0;" vertex="1" parent="1">
                    <mxGeometry x="253" y="1240" width="180" height="30" as="geometry"/>
                </mxCell>
                <mxCell id="61" style="edgeStyle=none;rounded=0;html=1;exitX=0;exitY=0.5;exitDx=0;exitDy=0;startArrow=block;startFill=0;endArrow=none;endFill=0;" edge="1" parent="1" source="62">
                    <mxGeometry relative="1" as="geometry">
                        <mxPoint x="210" y="1315.2" as="targetPoint"/>
                    </mxGeometry>
                </mxCell>
                <mxCell id="62" value="применяется + к значениям 7 и 2" style="text;strokeColor=none;align=center;fillColor=none;html=1;verticalAlign=middle;whiteSpace=wrap;rounded=0;" vertex="1" parent="1">
                    <mxGeometry x="260" y="1300" width="200" height="30" as="geometry"/>
                </mxCell>
                <mxCell id="63" value="возвращает 9" style="text;strokeColor=none;align=center;fillColor=none;html=1;verticalAlign=middle;whiteSpace=wrap;rounded=0;" vertex="1" parent="1">
                    <mxGeometry x="260" y="1330" width="90" height="30" as="geometry"/>
                </mxCell>
                <mxCell id="64" value="вычисляется 2 к значению 2" style="text;strokeColor=none;align=center;fillColor=none;html=1;verticalAlign=middle;whiteSpace=wrap;rounded=0;" vertex="1" parent="1">
                    <mxGeometry x="253" y="1270" width="180" height="30" as="geometry"/>
                </mxCell>
                <mxCell id="65" value="5. (equal (- 7 3) (* 3 2))" style="text;strokeColor=none;align=center;fillColor=none;html=1;verticalAlign=middle;whiteSpace=wrap;rounded=0;" vertex="1" parent="1">
                    <mxGeometry x="120" y="1440" width="140" height="30" as="geometry"/>
                </mxCell>
                <mxCell id="66" style="edgeStyle=none;rounded=0;html=1;exitX=0;exitY=0.5;exitDx=0;exitDy=0;startArrow=block;startFill=1;endArrow=block;endFill=0;entryX=0;entryY=0.5;entryDx=0;entryDy=0;" edge="1" parent="1" source="67" target="76">
                    <mxGeometry relative="1" as="geometry">
                        <mxPoint x="230" y="1690" as="targetPoint"/>
                        <Array as="points">
                            <mxPoint x="160" y="1485"/>
                            <mxPoint x="160" y="1845"/>
                        </Array>
                    </mxGeometry>
                </mxCell>
                <mxCell id="67" value="(equal (- 7 3) (* 3 2))" style="text;strokeColor=none;align=center;fillColor=none;html=1;verticalAlign=middle;whiteSpace=wrap;rounded=0;" vertex="1" parent="1">
                    <mxGeometry x="183" y="1470" width="117" height="30" as="geometry"/>
                </mxCell>
                <mxCell id="68" style="edgeStyle=none;html=1;exitX=0;exitY=0.5;exitDx=0;exitDy=0;entryX=0;entryY=0.5;entryDx=0;entryDy=0;endArrow=block;endFill=0;rounded=0;startArrow=block;startFill=1;" edge="1" parent="1" source="69" target="73">
                    <mxGeometry relative="1" as="geometry">
                        <Array as="points">
                            <mxPoint x="210" y="1515"/>
                            <mxPoint x="210" y="1635"/>
                        </Array>
                    </mxGeometry>
                </mxCell>
                <mxCell id="69" value="(- 7 3)" style="text;strokeColor=none;align=center;fillColor=none;html=1;verticalAlign=middle;whiteSpace=wrap;rounded=0;" vertex="1" parent="1">
                    <mxGeometry x="233" y="1500" width="60" height="30" as="geometry"/>
                </mxCell>
                <mxCell id="70" value="вычисляется 7 к значению 7" style="text;strokeColor=none;align=center;fillColor=none;html=1;verticalAlign=middle;whiteSpace=wrap;rounded=0;" vertex="1" parent="1">
                    <mxGeometry x="253" y="1530" width="180" height="30" as="geometry"/>
                </mxCell>
                <mxCell id="71" style="edgeStyle=none;rounded=0;html=1;exitX=0;exitY=0.5;exitDx=0;exitDy=0;startArrow=block;startFill=0;endArrow=none;endFill=0;" edge="1" parent="1" source="72">
                    <mxGeometry relative="1" as="geometry">
                        <mxPoint x="210" y="1605.2" as="targetPoint"/>
                    </mxGeometry>
                </mxCell>
                <mxCell id="72" value="применяется - к значениям 7 и 3" style="text;strokeColor=none;align=center;fillColor=none;html=1;verticalAlign=middle;whiteSpace=wrap;rounded=0;" vertex="1" parent="1">
                    <mxGeometry x="260" y="1590" width="200" height="30" as="geometry"/>
                </mxCell>
                <mxCell id="73" value="возвращает 4" style="text;strokeColor=none;align=center;fillColor=none;html=1;verticalAlign=middle;whiteSpace=wrap;rounded=0;" vertex="1" parent="1">
                    <mxGeometry x="260" y="1620" width="90" height="30" as="geometry"/>
                </mxCell>
                <mxCell id="74" style="edgeStyle=none;rounded=0;html=1;exitX=0;exitY=0.5;exitDx=0;exitDy=0;startArrow=block;startFill=0;endArrow=none;endFill=0;" edge="1" parent="1" source="75">
                    <mxGeometry relative="1" as="geometry">
                        <mxPoint x="160" y="1814.818181818182" as="targetPoint"/>
                    </mxGeometry>
                </mxCell>
                <mxCell id="75" value="применяется equal к 4 и 6" style="text;strokeColor=none;align=center;fillColor=none;html=1;verticalAlign=middle;whiteSpace=wrap;rounded=0;" vertex="1" parent="1">
                    <mxGeometry x="252" y="1800" width="168" height="30" as="geometry"/>
                </mxCell>
                <mxCell id="76" value="возвращает Nil" style="text;strokeColor=none;align=center;fillColor=none;html=1;verticalAlign=middle;whiteSpace=wrap;rounded=0;" vertex="1" parent="1">
                    <mxGeometry x="253" y="1830" width="97" height="30" as="geometry"/>
                </mxCell>
                <mxCell id="77" value="вычисляется 3 к значению 3" style="text;strokeColor=none;align=center;fillColor=none;html=1;verticalAlign=middle;whiteSpace=wrap;rounded=0;" vertex="1" parent="1">
                    <mxGeometry x="253" y="1560" width="180" height="30" as="geometry"/>
                </mxCell>
                <mxCell id="78" style="edgeStyle=none;html=1;exitX=0;exitY=0.5;exitDx=0;exitDy=0;entryX=0;entryY=0.5;entryDx=0;entryDy=0;endArrow=block;endFill=0;rounded=0;startArrow=block;startFill=1;" edge="1" parent="1" source="79" target="83">
                    <mxGeometry relative="1" as="geometry">
                        <Array as="points">
                            <mxPoint x="210" y="1665"/>
                            <mxPoint x="210" y="1785"/>
                        </Array>
                    </mxGeometry>
                </mxCell>
                <mxCell id="79" value="(* 3 2)" style="text;strokeColor=none;align=center;fillColor=none;html=1;verticalAlign=middle;whiteSpace=wrap;rounded=0;" vertex="1" parent="1">
                    <mxGeometry x="233" y="1650" width="60" height="30" as="geometry"/>
                </mxCell>
                <mxCell id="80" value="вычисляется 3 к значению 3" style="text;strokeColor=none;align=center;fillColor=none;html=1;verticalAlign=middle;whiteSpace=wrap;rounded=0;" vertex="1" parent="1">
                    <mxGeometry x="253" y="1680" width="180" height="30" as="geometry"/>
                </mxCell>
                <mxCell id="81" style="edgeStyle=none;rounded=0;html=1;exitX=0;exitY=0.5;exitDx=0;exitDy=0;startArrow=block;startFill=0;endArrow=none;endFill=0;" edge="1" parent="1" source="82">
                    <mxGeometry relative="1" as="geometry">
                        <mxPoint x="210" y="1755.2" as="targetPoint"/>
                    </mxGeometry>
                </mxCell>
                <mxCell id="82" value="применяется * к значениям 3 и 2" style="text;strokeColor=none;align=center;fillColor=none;html=1;verticalAlign=middle;whiteSpace=wrap;rounded=0;" vertex="1" parent="1">
                    <mxGeometry x="260" y="1740" width="200" height="30" as="geometry"/>
                </mxCell>
                <mxCell id="83" value="возвращает 6" style="text;strokeColor=none;align=center;fillColor=none;html=1;verticalAlign=middle;whiteSpace=wrap;rounded=0;" vertex="1" parent="1">
                    <mxGeometry x="260" y="1770" width="90" height="30" as="geometry"/>
                </mxCell>
                <mxCell id="84" value="вычисляется 2 к значению 2" style="text;strokeColor=none;align=center;fillColor=none;html=1;verticalAlign=middle;whiteSpace=wrap;rounded=0;" vertex="1" parent="1">
                    <mxGeometry x="253" y="1710" width="180" height="30" as="geometry"/>
                </mxCell>
                <mxCell id="85" value="6. (equal (abs (- 2 4)) 3))" style="text;strokeColor=none;align=center;fillColor=none;html=1;verticalAlign=middle;whiteSpace=wrap;rounded=0;" vertex="1" parent="1">
                    <mxGeometry x="120" y="1880" width="140" height="30" as="geometry"/>
                </mxCell>
                <mxCell id="86" style="edgeStyle=none;rounded=0;html=1;exitX=0;exitY=0.5;exitDx=0;exitDy=0;startArrow=block;startFill=1;endArrow=block;endFill=0;entryX=0;entryY=0.5;entryDx=0;entryDy=0;" edge="1" parent="1" source="87" target="96">
                    <mxGeometry relative="1" as="geometry">
                        <mxPoint x="230" y="2130" as="targetPoint"/>
                        <Array as="points">
                            <mxPoint x="160" y="1925"/>
                            <mxPoint x="160" y="2255"/>
                        </Array>
                    </mxGeometry>
                </mxCell>
                <mxCell id="87" value="(equal (abs (- 2 4)) 3))" style="text;strokeColor=none;align=center;fillColor=none;html=1;verticalAlign=middle;whiteSpace=wrap;rounded=0;" vertex="1" parent="1">
                    <mxGeometry x="183" y="1910" width="127" height="30" as="geometry"/>
                </mxCell>
                <mxCell id="88" style="edgeStyle=none;html=1;exitX=0;exitY=0.5;exitDx=0;exitDy=0;entryX=0;entryY=0.5;entryDx=0;entryDy=0;endArrow=block;endFill=0;rounded=0;startArrow=block;startFill=1;" edge="1" parent="1" source="89" target="93">
                    <mxGeometry relative="1" as="geometry">
                        <Array as="points">
                            <mxPoint x="210" y="1955"/>
                            <mxPoint x="210" y="2165"/>
                        </Array>
                    </mxGeometry>
                </mxCell>
                <mxCell id="89" value="(abs (- 2 4))" style="text;strokeColor=none;align=center;fillColor=none;html=1;verticalAlign=middle;whiteSpace=wrap;rounded=0;" vertex="1" parent="1">
                    <mxGeometry x="233" y="1940" width="67" height="30" as="geometry"/>
                </mxCell>
                <mxCell id="91" style="edgeStyle=none;rounded=0;html=1;exitX=0;exitY=0.5;exitDx=0;exitDy=0;startArrow=block;startFill=0;endArrow=none;endFill=0;" edge="1" parent="1" source="92">
                    <mxGeometry relative="1" as="geometry">
                        <mxPoint x="210" y="2135.2" as="targetPoint"/>
                    </mxGeometry>
                </mxCell>
                <mxCell id="92" value="применяется abs к значению -2" style="text;strokeColor=none;align=center;fillColor=none;html=1;verticalAlign=middle;whiteSpace=wrap;rounded=0;" vertex="1" parent="1">
                    <mxGeometry x="260" y="2120" width="190" height="30" as="geometry"/>
                </mxCell>
                <mxCell id="93" value="возвращает 2" style="text;strokeColor=none;align=center;fillColor=none;html=1;verticalAlign=middle;whiteSpace=wrap;rounded=0;" vertex="1" parent="1">
                    <mxGeometry x="260" y="2150" width="90" height="30" as="geometry"/>
                </mxCell>
                <mxCell id="94" style="edgeStyle=none;rounded=0;html=1;exitX=0;exitY=0.5;exitDx=0;exitDy=0;startArrow=block;startFill=0;endArrow=none;endFill=0;" edge="1" parent="1" source="95">
                    <mxGeometry relative="1" as="geometry">
                        <mxPoint x="160" y="2224.818181818182" as="targetPoint"/>
                    </mxGeometry>
                </mxCell>
                <mxCell id="95" value="применяется equal к 2 и 3" style="text;strokeColor=none;align=center;fillColor=none;html=1;verticalAlign=middle;whiteSpace=wrap;rounded=0;" vertex="1" parent="1">
                    <mxGeometry x="252" y="2210" width="168" height="30" as="geometry"/>
                </mxCell>
                <mxCell id="96" value="возвращает Nil" style="text;strokeColor=none;align=center;fillColor=none;html=1;verticalAlign=middle;whiteSpace=wrap;rounded=0;" vertex="1" parent="1">
                    <mxGeometry x="253" y="2240" width="97" height="30" as="geometry"/>
                </mxCell>
                <mxCell id="98" style="edgeStyle=none;html=1;exitX=0;exitY=0.5;exitDx=0;exitDy=0;entryX=0;entryY=0.5;entryDx=0;entryDy=0;endArrow=block;endFill=0;rounded=0;startArrow=block;startFill=1;" edge="1" parent="1" source="99" target="103">
                    <mxGeometry relative="1" as="geometry">
                        <Array as="points">
                            <mxPoint x="239.5" y="1985"/>
                            <mxPoint x="239.5" y="2105"/>
                        </Array>
                    </mxGeometry>
                </mxCell>
                <mxCell id="99" value="(- 2 4)" style="text;strokeColor=none;align=center;fillColor=none;html=1;verticalAlign=middle;whiteSpace=wrap;rounded=0;" vertex="1" parent="1">
                    <mxGeometry x="262.5" y="1970" width="47" height="30" as="geometry"/>
                </mxCell>
                <mxCell id="100" value="вычисляется 2 к значению 2" style="text;strokeColor=none;align=center;fillColor=none;html=1;verticalAlign=middle;whiteSpace=wrap;rounded=0;" vertex="1" parent="1">
                    <mxGeometry x="282.5" y="2000" width="180" height="30" as="geometry"/>
                </mxCell>
                <mxCell id="101" style="edgeStyle=none;rounded=0;html=1;exitX=0;exitY=0.5;exitDx=0;exitDy=0;startArrow=block;startFill=0;endArrow=none;endFill=0;" edge="1" parent="1" source="102">
                    <mxGeometry relative="1" as="geometry">
                        <mxPoint x="239.5" y="2075.2" as="targetPoint"/>
                    </mxGeometry>
                </mxCell>
                <mxCell id="102" value="применяется - к значениям 2 и 4" style="text;strokeColor=none;align=center;fillColor=none;html=1;verticalAlign=middle;whiteSpace=wrap;rounded=0;" vertex="1" parent="1">
                    <mxGeometry x="289.5" y="2060" width="200" height="30" as="geometry"/>
                </mxCell>
                <mxCell id="103" value="возвращает -2" style="text;strokeColor=none;align=center;fillColor=none;html=1;verticalAlign=middle;whiteSpace=wrap;rounded=0;" vertex="1" parent="1">
                    <mxGeometry x="289.5" y="2090" width="90" height="30" as="geometry"/>
                </mxCell>
                <mxCell id="104" value="вычисляется 4 к значению 4" style="text;strokeColor=none;align=center;fillColor=none;html=1;verticalAlign=middle;whiteSpace=wrap;rounded=0;" vertex="1" parent="1">
                    <mxGeometry x="282.5" y="2030" width="180" height="30" as="geometry"/>
                </mxCell>
                <mxCell id="105" value="вычисляется 3 к значению 3" style="text;strokeColor=none;align=center;fillColor=none;html=1;verticalAlign=middle;whiteSpace=wrap;rounded=0;" vertex="1" parent="1">
                    <mxGeometry x="211.5" y="2180" width="180" height="30" as="geometry"/>
                </mxCell>
            </root>
        </mxGraphModel>
    </diagram>
</mxfile>